<?xml version="1.0" encoding="utf-8"?>
<!-- Generator: Adobe Illustrator 24.0.1, SVG Export Plug-In . SVG Version: 6.00 Build 0)  -->
<svg version="1.1" id="Layer_1" xmlns="http://www.w3.org/2000/svg" xmlns:xlink="http://www.w3.org/1999/xlink" x="0px" y="0px"
	 viewBox="0 0 240 240" style="enable-background:new 0 0 240 240;" xml:space="preserve">
<g>
	<g>
		<path d="M16.1,108.7c-0.6,0.8-1.3,1.4-2.2,1.8c-0.9,0.4-1.8,0.5-2.9,0.4c-1-0.1-1.9-0.5-2.7-1.1c-0.8-0.6-1.3-1.3-1.7-2.3
			c-0.4-0.9-0.5-1.9-0.3-3c0.1-0.9,0.4-1.7,0.8-2.4c0.4-0.7,0.9-1.2,1.6-1.7l1.2,1.7c-0.9,0.6-1.4,1.4-1.6,2.5
			c-0.1,0.6,0,1.2,0.2,1.8c0.2,0.5,0.6,1,1,1.3c0.5,0.3,1,0.6,1.7,0.6c0.6,0.1,1.2,0,1.8-0.2c0.5-0.2,1-0.6,1.3-1
			c0.3-0.5,0.6-1,0.6-1.7c0.1-1-0.2-2-0.9-2.8l1.6-1.4c0.5,0.6,0.9,1.2,1.1,2c0.2,0.8,0.3,1.6,0.2,2.5C17,107,16.7,107.9,16.1,108.7
			z"/>
		<path d="M17.8,97.9c-0.7,0.7-1.5,1.2-2.4,1.5c-0.9,0.3-1.9,0.3-2.9,0.1s-1.8-0.7-2.5-1.4c-0.7-0.7-1.1-1.5-1.4-2.5
			c-0.2-1-0.2-2,0-3c0.3-1.1,0.7-1.9,1.4-2.7c0.7-0.7,1.5-1.2,2.4-1.5c0.9-0.3,1.9-0.3,2.9-0.1c1,0.2,1.8,0.7,2.5,1.4
			c0.7,0.7,1.1,1.5,1.4,2.5c0.2,1,0.2,2,0,3C18.9,96.2,18.5,97.1,17.8,97.9z M17.2,93c-0.2-0.6-0.4-1-0.9-1.4
			c-0.4-0.4-1-0.7-1.6-0.8c-0.6-0.2-1.2-0.2-1.8,0c-0.6,0.2-1,0.4-1.4,0.9c-0.4,0.4-0.7,0.9-0.8,1.5c-0.1,0.6-0.1,1.2,0,1.7
			c0.2,0.6,0.4,1,0.9,1.4c0.4,0.4,1,0.7,1.6,0.8c0.6,0.2,1.2,0.2,1.8,0c0.6-0.2,1-0.4,1.4-0.9c0.4-0.4,0.7-0.9,0.8-1.5
			C17.3,94.1,17.3,93.5,17.2,93z"/>
		<path d="M21.3,85.5c-0.7,0.6-1.6,1.1-2.5,1.2c-0.9,0.2-1.9,0.1-2.9-0.3c-1-0.4-1.8-0.9-2.4-1.7c-0.6-0.7-1-1.6-1.1-2.6
			c-0.1-1,0-2,0.4-3c0.3-0.9,0.8-1.6,1.3-2.1s1.2-1,1.9-1.3l0.8,2c-1,0.4-1.7,1.1-2.1,2c-0.2,0.6-0.3,1.2-0.2,1.8
			c0.1,0.6,0.3,1.1,0.7,1.5s0.9,0.8,1.5,1c0.6,0.2,1.2,0.3,1.8,0.2c0.6-0.1,1.1-0.3,1.5-0.7c0.4-0.4,0.8-0.9,1-1.5
			c0.4-1,0.3-1.9-0.2-2.9l1.9-1c0.4,0.7,0.6,1.4,0.7,2.2c0,0.8-0.1,1.6-0.4,2.5C22.6,84.1,22,84.9,21.3,85.5z"/>
		<path d="M25.4,75.4c-0.8,0.6-1.7,0.9-2.7,1c-1,0.1-1.9-0.1-2.8-0.6c-0.9-0.5-1.6-1.1-2.1-1.9c-0.5-0.8-0.8-1.7-0.8-2.7
			c0-1,0.2-2,0.7-2.9c0.5-1,1.1-1.7,2-2.3c0.8-0.6,1.7-0.9,2.7-1c1-0.1,1.9,0.1,2.8,0.6c0.9,0.5,1.6,1.1,2.1,1.9
			c0.5,0.8,0.8,1.7,0.8,2.7c0,1-0.2,2-0.7,2.9C26.9,74.1,26.2,74.8,25.4,75.4z M25.9,70.5c0-0.6-0.2-1.1-0.5-1.6
			c-0.3-0.5-0.8-0.9-1.4-1.2c-0.6-0.3-1.2-0.4-1.7-0.4c-0.6,0-1.1,0.2-1.6,0.5c-0.5,0.3-0.9,0.7-1.1,1.3c-0.3,0.6-0.4,1.1-0.4,1.7
			c0,0.6,0.2,1.1,0.5,1.6c0.3,0.5,0.8,0.9,1.4,1.2c0.6,0.3,1.2,0.4,1.7,0.4c0.6,0,1.1-0.2,1.6-0.5c0.5-0.3,0.9-0.7,1.1-1.3
			C25.8,71.6,26,71.1,25.9,70.5z"/>
		<path d="M26.5,63.8l2.3-3.6l1.6,1L28,64.8L26.5,63.8z"/>
		<path d="M37.7,56.2c-0.7,0.5-1.3,0.8-1.9,0.9l-0.9-1.8c0.5-0.1,1.1-0.4,1.6-0.7c0.5-0.4,1-0.8,1.4-1.2c0.4-0.5,0.7-1,0.7-1.4
			c0-0.4-0.1-0.7-0.3-0.9c-0.2-0.2-0.4-0.2-0.7-0.2c-0.3,0-0.5,0.2-0.8,0.3c-0.3,0.2-0.6,0.4-1,0.7c-0.7,0.5-1.2,0.9-1.7,1.2
			c-0.5,0.3-1,0.4-1.5,0.4c-0.6,0-1.1-0.2-1.6-0.6c-0.5-0.4-0.8-0.9-1-1.4c-0.2-0.6-0.2-1.2,0-1.9c0.2-0.7,0.6-1.4,1.2-2.2
			c0.4-0.5,0.9-1,1.4-1.4c0.5-0.4,1.1-0.7,1.6-0.9l1,1.7c-1,0.4-1.9,1-2.5,1.7c-0.4,0.5-0.7,1-0.7,1.4c0,0.4,0.1,0.7,0.4,0.9
			c0.3,0.2,0.6,0.3,1,0.1c0.4-0.2,0.9-0.5,1.5-1c0.7-0.5,1.2-0.9,1.7-1.2c0.5-0.3,1-0.4,1.5-0.4c0.5,0,1.1,0.2,1.6,0.6
			c0.5,0.4,0.8,0.9,1,1.4c0.2,0.6,0.2,1.2,0,1.9c-0.2,0.7-0.6,1.4-1.2,2.2C38.9,55.2,38.3,55.8,37.7,56.2z"/>
		<path d="M38.8,42.2l-2.3,2.4L35,43.2l6.4-6.5l1.4,1.4l-2.3,2.4l6.1,5.9l-1.7,1.7L38.8,42.2z"/>
		<path d="M50.1,41.6c-1.2-0.1-2.2-0.7-3.2-1.9l-3.8-4.5l1.9-1.6l3.7,4.4c1.2,1.4,2.4,1.7,3.6,0.7c0.6-0.5,0.9-1,0.9-1.6
			c0-0.6-0.3-1.3-0.9-2l-3.7-4.4l1.8-1.5l3.8,4.5c1,1.2,1.4,2.4,1.3,3.5c-0.1,1.2-0.7,2.2-1.9,3.2C52.4,41.3,51.2,41.7,50.1,41.6z"
			/>
		<path d="M53.4,26.8l4-2.6c1-0.6,1.9-1,2.9-1.1c1-0.1,1.9,0,2.7,0.4c0.8,0.4,1.5,1,2.1,1.9c0.6,0.9,0.9,1.8,0.9,2.7
			c0,0.9-0.2,1.8-0.7,2.6c-0.5,0.8-1.2,1.6-2.2,2.2l-4,2.6L53.4,26.8z M61.9,31.4c0.9-0.6,1.4-1.3,1.6-2.1c0.2-0.8,0-1.7-0.5-2.5
			c-0.5-0.8-1.2-1.3-2.1-1.5c-0.8-0.1-1.7,0.1-2.6,0.6l-1.9,1.2l3.5,5.4L61.9,31.4z"/>
		<path d="M64.9,19.7l2.1-1.1l5,9.2l-2.1,1.1L64.9,19.7z"/>
		<path d="M76.1,25.1c-1-0.1-1.9-0.4-2.6-1c-0.8-0.6-1.4-1.3-1.8-2.3c-0.4-0.9-0.5-1.9-0.4-2.8s0.5-1.8,1.1-2.6
			c0.6-0.8,1.4-1.4,2.4-1.8c1-0.4,2-0.6,3-0.5c1,0.1,1.9,0.4,2.6,1c0.8,0.6,1.4,1.3,1.8,2.3c0.4,0.9,0.5,1.9,0.4,2.8
			c-0.1,1-0.5,1.8-1.1,2.6c-0.6,0.8-1.4,1.4-2.4,1.8C78.1,25,77.1,25.2,76.1,25.1z M79.7,21.6c0.3-0.5,0.5-1,0.6-1.6s0-1.2-0.3-1.8
			c-0.3-0.6-0.6-1.1-1.1-1.4c-0.5-0.4-1-0.6-1.5-0.6c-0.6-0.1-1.1,0-1.7,0.3c-0.6,0.2-1,0.6-1.4,1.1c-0.3,0.5-0.5,1-0.6,1.6
			c-0.1,0.6,0,1.2,0.3,1.8c0.3,0.6,0.6,1.1,1.1,1.4c0.5,0.4,1,0.6,1.5,0.6c0.6,0.1,1.1,0,1.7-0.3C78.9,22.4,79.3,22.1,79.7,21.6z"/>
		<path d="M98.1,16.3l0.5,1.9l-7.9,2L88.2,10l7.7-1.9l0.5,1.9L91,11.3l0.6,2.2l4.7-1.2l0.5,1.8L92,15.3l0.6,2.3L98.1,16.3z"/>
		<path d="M99.2,12.9l4.2-0.7l0.3,1.8l-4.2,0.7L99.2,12.9z"/>
		<path d="M108.7,16.1c-0.9-0.4-1.6-1-2.2-1.7c-0.6-0.8-0.9-1.7-1-2.7c-0.1-1,0.1-2,0.5-2.8c0.4-0.9,1-1.6,1.9-2.1
			c0.8-0.5,1.8-0.9,2.8-0.9c0.9-0.1,1.7,0,2.5,0.3c0.8,0.3,1.4,0.7,2,1.2l-1.4,1.6c-0.8-0.8-1.7-1.1-2.7-1c-0.6,0.1-1.2,0.2-1.7,0.6
			c-0.5,0.3-0.8,0.8-1.1,1.3c-0.2,0.5-0.3,1.1-0.3,1.8c0.1,0.6,0.2,1.2,0.6,1.7c0.3,0.5,0.8,0.8,1.3,1.1c0.5,0.2,1.1,0.3,1.8,0.3
			c1-0.1,1.9-0.6,2.5-1.5l1.7,1.3c-0.4,0.6-1,1.2-1.7,1.5s-1.5,0.6-2.4,0.7C110.5,16.7,109.6,16.5,108.7,16.1z"/>
		<path d="M119.6,15.5c-0.9-0.5-1.5-1.2-2-2c-0.5-0.8-0.7-1.8-0.7-2.8c0-1,0.3-1.9,0.8-2.8c0.5-0.8,1.2-1.4,2.1-1.9s1.9-0.7,3-0.6
			c1.1,0,2.1,0.3,2.9,0.8c0.9,0.5,1.5,1.2,2,2c0.5,0.8,0.7,1.8,0.7,2.8s-0.3,1.9-0.8,2.8c-0.5,0.8-1.2,1.4-2.1,1.9
			c-0.9,0.4-1.9,0.7-2.9,0.6C121.5,16.2,120.5,16,119.6,15.5z M124.3,13.8c0.5-0.3,0.9-0.7,1.2-1.2c0.3-0.5,0.5-1.1,0.5-1.7
			c0-0.6-0.1-1.2-0.4-1.7c-0.3-0.5-0.7-0.9-1.1-1.2s-1-0.5-1.7-0.5c-0.6,0-1.2,0.1-1.7,0.4c-0.5,0.3-0.9,0.7-1.2,1.2
			c-0.3,0.5-0.5,1.1-0.5,1.7c0,0.6,0.1,1.2,0.4,1.7c0.3,0.5,0.7,0.9,1.1,1.2c0.5,0.3,1,0.5,1.7,0.5
			C123.2,14.2,123.8,14.1,124.3,13.8z"/>
		<path d="M139.6,17.8l0.9-6.2l-3.8,4.6l-1.1-0.2l-2.3-5.4l-0.9,6.1l-2.2-0.3L131.8,6l2,0.3l2.9,7l4.8-5.8l2,0.3l-1.6,10.3
			L139.6,17.8z"/>
		<path d="M153.4,21.5l1.8-6l-4.4,4.1l-1-0.3l-1.5-5.7l-1.8,5.9l-2.2-0.7l3-10l1.9,0.6l1.9,7.4l5.6-5.1l1.9,0.6l-3,10L153.4,21.5z"
			/>
		<path d="M166.2,24.6l-0.8,1.8l-7.4-3.2l4.2-9.6l7.3,3.2l-0.8,1.8l-5-2.2l-0.9,2.1l4.5,1.9l-0.8,1.7l-4.5-1.9l-1,2.2L166.2,24.6z"
			/>
		<path d="M173.2,30.6l-0.3-3.5l-0.1-0.1l-1.8-1l-1.4,2.5l-2.1-1.2l5.1-9.1l3.9,2.2c0.8,0.5,1.4,1,1.9,1.6c0.4,0.6,0.7,1.2,0.7,1.9
			c0,0.7-0.1,1.4-0.5,2c-0.4,0.7-0.9,1.2-1.5,1.5c-0.6,0.3-1.3,0.4-2,0.3l0.4,4.1L173.2,30.6z M176.6,23.3c-0.2-0.5-0.6-0.9-1.2-1.2
			l-1.7-1l-1.8,3.2l1.7,1c0.6,0.4,1.2,0.5,1.7,0.4c0.5-0.1,0.9-0.4,1.2-0.9C176.7,24.3,176.7,23.8,176.6,23.3z"/>
		<path d="M179,33.8c-0.4-0.9-0.6-1.8-0.5-2.8c0.1-1,0.4-1.9,1-2.7c0.6-0.8,1.3-1.5,2.2-1.8c0.9-0.4,1.8-0.5,2.8-0.4
			c1,0.1,1.9,0.5,2.8,1.1c0.7,0.5,1.3,1.1,1.7,1.8s0.6,1.4,0.7,2.2l-2.1,0.3c-0.1-1.1-0.6-1.9-1.4-2.5c-0.5-0.4-1.1-0.6-1.7-0.7
			c-0.6-0.1-1.1,0-1.7,0.3c-0.5,0.2-1,0.6-1.4,1.2c-0.4,0.5-0.6,1.1-0.7,1.7c-0.1,0.6,0,1.1,0.3,1.7c0.2,0.5,0.6,1,1.2,1.4
			c0.9,0.6,1.8,0.8,2.9,0.5l0.4,2.1c-0.8,0.2-1.5,0.2-2.3,0.1c-0.8-0.2-1.5-0.5-2.3-1C180.1,35.4,179.5,34.7,179,33.8z"/>
		<path d="M193.4,43.5l-1.3,1.5l-6.1-5.4l6.9-7.8l5.9,5.2l-1.3,1.5l-4.1-3.6l-1.5,1.7l3.6,3.2l-1.2,1.4l-3.6-3.2l-1.6,1.8
			L193.4,43.5z"/>
		<path d="M209,48.8c0.2,0.7,0.2,1.4,0,2.1c-0.2,0.6-0.6,1.2-1.2,1.7c-0.6,0.5-1.2,0.8-1.9,0.9c-0.7,0.1-1.4,0-2-0.4
			c-0.7-0.3-1.3-0.8-1.9-1.6l-1.4-1.6l-2.2,1.9l-1.6-1.9l8-6.7l2.9,3.5C208.4,47.4,208.8,48.1,209,48.8z M204.9,51.1
			c0.5,0.1,0.9-0.1,1.4-0.4c0.5-0.4,0.7-0.8,0.7-1.3c0-0.5-0.2-1-0.7-1.6l-1.3-1.5l-2.8,2.3l1.3,1.5C203.9,50.7,204.4,51,204.9,51.1
			z"/>
		<path d="M207.6,64l1.3-3.3l-0.1-0.1l-1.2-1.7l-2.4,1.6l-1.4-2l8.7-5.9l2.5,3.8c0.5,0.8,0.8,1.5,1,2.3c0.1,0.7,0.1,1.4-0.2,2
			c-0.3,0.6-0.7,1.2-1.4,1.6c-0.6,0.4-1.3,0.7-2,0.7c-0.7,0-1.3-0.2-2-0.6l-1.5,3.8L207.6,64z M213.9,59c0-0.5-0.1-1-0.5-1.6
			l-1.1-1.6l-3,2l1.1,1.6c0.4,0.6,0.8,1,1.3,1.1c0.5,0.1,1,0,1.4-0.3C213.6,59.9,213.8,59.4,213.9,59z"/>
		<path d="M211.4,69.4c0-1,0.3-1.9,0.8-2.7c0.5-0.8,1.2-1.5,2.1-1.9c0.9-0.5,1.8-0.7,2.8-0.6c1,0.1,1.8,0.4,2.7,0.9
			c0.8,0.6,1.5,1.3,2,2.3c0.5,1,0.7,1.9,0.7,2.9c0,1-0.3,1.9-0.8,2.7c-0.5,0.8-1.2,1.5-2.1,1.9c-0.9,0.5-1.8,0.7-2.8,0.6
			c-1-0.1-1.8-0.4-2.7-0.9c-0.8-0.6-1.5-1.3-2-2.3C211.7,71.3,211.4,70.4,211.4,69.4z M215.1,72.6c0.5,0.3,1,0.5,1.6,0.5
			c0.6,0,1.2-0.1,1.7-0.4c0.6-0.3,1-0.7,1.3-1.2c0.3-0.5,0.5-1,0.5-1.6c0-0.6-0.1-1.1-0.4-1.7c-0.3-0.5-0.7-1-1.1-1.3
			c-0.5-0.3-1-0.5-1.6-0.5c-0.6,0-1.2,0.1-1.7,0.4c-0.6,0.3-1,0.7-1.3,1.2c-0.3,0.5-0.5,1-0.5,1.6c0,0.6,0.1,1.1,0.4,1.7
			C214.3,71.9,214.7,72.3,215.1,72.6z"/>
		<path d="M215.8,78.9c0-0.6,0.2-1.2,0.5-1.8l2,0.7c-0.5,0.8-0.6,1.6-0.4,2.2c0.4,0.9,1.1,1.2,2.2,0.7l4.6-1.8l-1.4-3.4l1.8-0.7
			l2.2,5.7l-6.3,2.5c-1.2,0.5-2.2,0.5-3,0.2c-0.8-0.4-1.5-1.1-1.9-2.3C215.9,80.2,215.8,79.6,215.8,78.9z"/>
		<path d="M222.8,94l-1.9,0.6l-2.3-7.8l10-3l2.2,7.6L229,92l-1.6-5.3l-2.2,0.6l1.4,4.7l-1.8,0.5l-1.4-4.7l-2.3,0.7L222.8,94z"/>
		<path d="M222.3,98.6c0.3-0.9,0.8-1.7,1.5-2.4c0.7-0.6,1.6-1,2.6-1.2c1-0.2,2-0.1,2.9,0.2c0.9,0.3,1.7,0.9,2.3,1.6
			c0.6,0.8,1,1.7,1.2,2.7c0.2,0.9,0.2,1.7,0,2.5c-0.2,0.8-0.5,1.5-1,2.1l-1.7-1.3c0.7-0.8,0.9-1.8,0.7-2.8c-0.1-0.6-0.4-1.2-0.7-1.6
			c-0.4-0.4-0.8-0.8-1.4-1c-0.6-0.2-1.1-0.2-1.8-0.1c-0.6,0.1-1.2,0.4-1.6,0.7c-0.4,0.4-0.8,0.8-1,1.4c-0.2,0.6-0.2,1.1-0.1,1.8
			c0.2,1,0.8,1.8,1.7,2.4l-1.1,1.8c-0.7-0.4-1.3-0.9-1.7-1.6c-0.4-0.7-0.8-1.4-0.9-2.3C221.9,100.6,222,99.6,222.3,98.6z"/>
		<path d="M231.9,109l-0.3-3.3l2-0.2l0.8,9.1l-2,0.2l-0.3-3.3l-8.5,0.7l-0.2-2.4L231.9,109z"/>
	</g>
	<g>
		<path d="M19.2,164.2c-0.3,0.5-0.7,0.8-1.3,1.1c-0.9,0.3-1.6,0.3-2.4-0.2c-0.7-0.5-1.3-1.4-1.8-2.6l-2-5l9.7-3.8l1.9,4.8
			c0.5,1.2,0.6,2.2,0.4,3c-0.2,0.8-0.7,1.4-1.5,1.7c-0.5,0.2-0.9,0.2-1.4,0.2c-0.5-0.1-0.9-0.3-1.2-0.6
			C19.6,163.2,19.5,163.8,19.2,164.2z M16.1,162.8c0.3,0.2,0.7,0.3,1.1,0.1c0.8-0.3,1-1.1,0.5-2.3l-1-2.6l-2.4,0.9l1,2.6
			C15.6,162.2,15.8,162.6,16.1,162.8z M20.7,156.5l-2.3,0.9l0.9,2.2c0.2,0.6,0.5,0.9,0.8,1.2c0.3,0.2,0.7,0.2,1,0.1
			c0.4-0.1,0.6-0.4,0.7-0.8c0.1-0.4,0-0.8-0.2-1.4L20.7,156.5z"/>
		<path d="M19.9,175.5l1.6-3.1l-0.1-0.1l-1-1.9l-2.6,1.4l-1.1-2.1l9.3-4.9l2.1,4c0.4,0.8,0.7,1.6,0.7,2.4c0,0.7-0.1,1.4-0.4,2
			c-0.3,0.6-0.8,1.1-1.5,1.4c-0.7,0.4-1.4,0.5-2,0.4c-0.7-0.1-1.3-0.3-1.9-0.8l-1.9,3.6L19.9,175.5z M26.7,171.2
			c0.1-0.5,0-1-0.4-1.7l-0.9-1.7l-3.2,1.7l0.9,1.7c0.3,0.6,0.7,1.1,1.2,1.2c0.5,0.2,0.9,0.1,1.5-0.1C26.3,172,26.6,171.7,26.7,171.2
			z"/>
		<path d="M28.6,185.1l-2.7-4l-2.4,0.5l-1.4-2.1l11.3-2l1.3,2l-6,9.8l-1.4-2.1L28.6,185.1z M29.7,183.5l2.4-3.6l-4.2,0.9L29.7,183.5
			z"/>
		<path d="M44.7,191.8l-7.9,6.9l-1.3-1.5l1.4-8.1l-4.8,4.2l-1.6-1.8l7.9-6.9l1.3,1.5l-1.4,8.1l4.8-4.2L44.7,191.8z"/>
		<path d="M46.8,194l3.5,3.2c0.8,0.8,1.4,1.6,1.8,2.5c0.4,0.9,0.5,1.8,0.3,2.7c-0.2,0.9-0.6,1.8-1.3,2.5c-0.7,0.8-1.5,1.3-2.4,1.6
			c-0.9,0.3-1.8,0.3-2.7,0c-0.9-0.3-1.8-0.8-2.7-1.5l-3.5-3.2L46.8,194z M44.5,203.4c0.8,0.7,1.6,1,2.4,1c0.9,0,1.6-0.4,2.3-1.1
			c0.7-0.7,1-1.5,0.9-2.4c-0.1-0.9-0.5-1.6-1.3-2.3l-1.6-1.5l-4.3,4.8L44.5,203.4z"/>
		<path d="M56.6,202.4l1.9,1.5l-6.3,8.4l-1.9-1.5L56.6,202.4z"/>
		<path d="M69.2,210.9l-5.5,8.9l-1.7-1.1l-1.1-8.2l-3.4,5.4l-2-1.3l5.5-8.9l1.7,1.1l1.1,8.1l3.4-5.4L69.2,210.9z"/>
		<path d="M76.1,219.9l2,0.9l-1.8,3.8c-0.7,0.1-1.4,0.2-2.2,0.1c-0.8-0.1-1.5-0.3-2.2-0.6c-1-0.5-1.8-1.1-2.4-1.9
			c-0.6-0.8-0.9-1.7-1-2.6c-0.1-1,0.1-1.9,0.5-2.8c0.4-0.9,1.1-1.7,1.9-2.2c0.8-0.5,1.7-0.8,2.7-0.9c1,0,2,0.2,3,0.6
			c0.8,0.4,1.5,0.9,2.1,1.5c0.5,0.6,0.9,1.3,1.1,2l-2,0.6c-0.3-1-1-1.8-1.9-2.2c-0.6-0.3-1.2-0.4-1.8-0.4c-0.6,0-1.1,0.2-1.6,0.6
			c-0.5,0.3-0.9,0.8-1.1,1.4c-0.3,0.6-0.4,1.2-0.3,1.8c0,0.6,0.2,1.1,0.6,1.6c0.3,0.5,0.8,0.9,1.4,1.1c0.6,0.3,1.3,0.4,1.9,0.4
			L76.1,219.9z"/>
		<path d="M92.5,231.4l-0.9-1.5c-1.2,0.5-2.4,0.5-3.7,0.2c-0.7-0.2-1.4-0.5-1.9-0.9c-0.5-0.4-0.9-0.9-1.1-1.4
			c-0.2-0.5-0.2-1-0.1-1.6c0.2-0.6,0.5-1.1,1-1.5c0.5-0.4,1.2-0.7,2.1-0.9c-0.3-0.5-0.4-0.9-0.5-1.3c-0.1-0.4,0-0.8,0.1-1.1
			c0.1-0.5,0.4-0.9,0.8-1.2c0.4-0.3,0.8-0.5,1.3-0.6c0.5-0.1,1.1,0,1.7,0.2c0.9,0.2,1.5,0.7,1.9,1.2c0.4,0.6,0.5,1.2,0.3,1.9
			c-0.1,0.5-0.4,0.9-0.9,1.2s-1,0.6-1.8,0.7l1.4,2.2c0.4-0.4,0.7-0.9,0.9-1.4l1.6,1.1c-0.4,0.8-1,1.5-1.6,2l0.9,1.4L92.5,231.4z
			 M90.7,228.3l-1.8-3c-0.5,0.1-0.9,0.3-1.2,0.5c-0.3,0.2-0.4,0.5-0.5,0.8c-0.1,0.4,0,0.7,0.2,1c0.3,0.3,0.7,0.6,1.2,0.7
			C89.3,228.5,90,228.5,90.7,228.3z M90.1,221.4c-0.2,0.1-0.4,0.3-0.5,0.6c-0.1,0.2-0.1,0.4,0,0.6c0.1,0.2,0.2,0.5,0.4,0.9
			c0.6-0.1,1-0.3,1.2-0.4c0.3-0.2,0.4-0.3,0.5-0.6c0.1-0.2,0-0.5-0.1-0.7c-0.1-0.2-0.4-0.3-0.7-0.4
			C90.6,221.3,90.3,221.3,90.1,221.4z"/>
		<path d="M119.3,224.3l-4.3,10.1l-2.6-0.2l-1.7-7.3l-3,6.9l-2.6-0.2l-2.5-10.7l2.5,0.2l1.7,7.5l3.1-7.1l2.2,0.2l1.7,7.6l3.1-7.2
			L119.3,224.3z"/>
		<path d="M129.6,232.2l0.1,1.9l-8.1,0.4l-0.5-10.5l7.9-0.4l0.1,1.9l-5.5,0.3l0.1,2.3l4.9-0.2l0.1,1.9l-4.9,0.2l0.1,2.4L129.6,232.2
			z"/>
		<path d="M141.6,227.9c0.4,0.4,0.7,0.9,0.8,1.5c0.1,0.9-0.1,1.7-0.7,2.3s-1.6,1-3,1.2l-5.3,0.8l-1.6-10.3l5.1-0.8
			c1.3-0.2,2.3-0.1,3,0.3c0.8,0.4,1.2,1,1.3,1.8c0.1,0.5,0,1-0.2,1.4c-0.2,0.4-0.5,0.8-0.9,1.1C140.7,227.3,141.2,227.5,141.6,227.9
			z M134.3,224.8l0.4,2.4l2.4-0.4c0.6-0.1,1-0.3,1.3-0.5c0.3-0.3,0.4-0.6,0.3-1c-0.1-0.4-0.3-0.7-0.6-0.8c-0.3-0.2-0.8-0.2-1.4-0.1
			L134.3,224.8z M139.6,230.6c0.3-0.3,0.4-0.6,0.3-1c-0.1-0.9-0.8-1.2-2.1-1L135,229l0.4,2.6l2.8-0.4
			C138.8,231,139.3,230.9,139.6,230.6z"/>
		<path d="M147.2,231c-0.8,0-1.5-0.1-2-0.4l0.3-2c0.5,0.2,1.1,0.3,1.8,0.4c0.6,0,1.3,0,1.9-0.2c0.7-0.2,1.1-0.4,1.4-0.7
			c0.3-0.3,0.4-0.6,0.3-0.9c-0.1-0.2-0.2-0.4-0.4-0.5c-0.2-0.1-0.5-0.2-0.8-0.2c-0.3,0-0.7,0-1.3,0c-0.8,0-1.5,0-2,0
			c-0.5-0.1-1-0.2-1.5-0.5c-0.5-0.3-0.8-0.8-1-1.5c-0.2-0.6-0.1-1.2,0.1-1.7c0.2-0.6,0.6-1.1,1.1-1.5c0.6-0.5,1.3-0.8,2.2-1
			c0.6-0.2,1.3-0.3,2-0.3c0.7,0,1.3,0.1,1.8,0.2l-0.2,2c-1.1-0.3-2.1-0.3-3,0c-0.7,0.2-1.1,0.4-1.4,0.7c-0.3,0.3-0.3,0.6-0.2,1
			c0.1,0.3,0.3,0.6,0.7,0.6c0.4,0.1,1,0.1,1.8,0.1c0.8,0,1.5,0,2,0c0.5,0.1,1,0.2,1.5,0.5c0.5,0.3,0.8,0.8,1,1.5
			c0.2,0.6,0.1,1.1-0.1,1.7c-0.2,0.6-0.6,1.1-1.1,1.5c-0.6,0.5-1.3,0.8-2.2,1C148.8,231,148,231.1,147.2,231z"/>
		<path d="M153.4,218.5l2.3-0.8l3.5,9.9l-2.3,0.8L153.4,218.5z"/>
		<path d="M161.4,217.5l-3.1,1.3l-0.8-1.8l8.3-3.7l0.8,1.8l-3.1,1.3l3.4,7.8l-2.2,1L161.4,217.5z"/>
		<path d="M178.9,216l1,1.7l-7.1,4l-5.1-9.1l6.9-3.9l1,1.7l-4.8,2.7l1.1,2l4.2-2.4l0.9,1.6l-4.2,2.4l1.2,2.1L178.9,216z"/>
		<path d="M181,204.3l3.7-3c0.9-0.7,1.8-1.2,2.8-1.4c1-0.2,1.9-0.2,2.7,0.2c0.9,0.3,1.6,0.9,2.3,1.7c0.7,0.8,1,1.7,1.2,2.6
			c0.1,0.9,0,1.8-0.4,2.7c-0.4,0.9-1.1,1.7-1.9,2.4l-3.7,3L181,204.3z M189.9,208.1c0.8-0.7,1.3-1.4,1.4-2.2
			c0.1-0.8-0.1-1.7-0.7-2.4c-0.6-0.8-1.4-1.2-2.2-1.3c-0.9-0.1-1.7,0.2-2.5,0.9l-1.7,1.4l4.1,5.1L189.9,208.1z"/>
		<path d="M202.6,196.4l1.4,1.4l-5.7,5.7l-7.4-7.4l5.6-5.6l1.4,1.4l-3.9,3.9l1.6,1.6l3.4-3.4l1.3,1.3l-3.4,3.4l1.7,1.7L202.6,196.4z
			"/>
		<path d="M206.9,194.2c-0.7,0.5-1.3,0.8-1.9,0.9l-0.9-1.8c0.5-0.1,1.1-0.4,1.6-0.7c0.5-0.4,1-0.8,1.4-1.2c0.4-0.5,0.7-1,0.7-1.4
			c0-0.4-0.1-0.7-0.3-0.9c-0.2-0.2-0.4-0.2-0.7-0.2c-0.3,0-0.5,0.2-0.8,0.3c-0.3,0.2-0.6,0.4-1,0.7c-0.7,0.5-1.2,0.9-1.7,1.2
			c-0.5,0.3-1,0.4-1.5,0.4c-0.6,0-1.1-0.2-1.6-0.6c-0.5-0.4-0.8-0.9-1-1.4c-0.2-0.6-0.2-1.2,0-1.9c0.2-0.7,0.6-1.4,1.2-2.2
			c0.4-0.5,0.9-1,1.4-1.4c0.5-0.4,1.1-0.7,1.6-0.9l1,1.7c-1,0.4-1.9,1-2.5,1.7c-0.4,0.5-0.7,1-0.7,1.4c0,0.4,0.1,0.7,0.4,0.9
			c0.3,0.2,0.6,0.3,1,0.1c0.4-0.2,0.9-0.5,1.5-1c0.7-0.5,1.2-0.9,1.7-1.2c0.5-0.3,1-0.4,1.5-0.4c0.5,0,1.1,0.2,1.6,0.6
			c0.5,0.4,0.8,0.9,1,1.4c0.2,0.6,0.2,1.2,0,1.9c-0.2,0.7-0.6,1.4-1.2,2.2C208.2,193.2,207.6,193.7,206.9,194.2z"/>
		<path d="M204.6,180.4l1.4-2l8.6,6l-1.4,2L204.6,180.4z"/>
		<path d="M215.7,172.2l1.1-1.9l3.7,2.1c0.1,0.7,0,1.4-0.1,2.2c-0.2,0.8-0.5,1.5-0.8,2.1c-0.5,0.9-1.2,1.7-2.1,2.2
			c-0.8,0.5-1.7,0.8-2.7,0.8c-1,0-1.9-0.2-2.8-0.8c-0.9-0.5-1.6-1.2-2-2c-0.5-0.8-0.7-1.8-0.6-2.7c0-1,0.3-2,0.9-2.9
			c0.5-0.8,1-1.4,1.6-1.9c0.6-0.5,1.3-0.8,2.1-1l0.5,2.1c-1.1,0.3-1.8,0.8-2.4,1.8c-0.3,0.6-0.5,1.2-0.5,1.8c0,0.6,0.1,1.1,0.4,1.6
			c0.3,0.5,0.7,0.9,1.3,1.3c0.6,0.3,1.1,0.5,1.7,0.5c0.6,0,1.1-0.1,1.6-0.4c0.5-0.3,0.9-0.7,1.2-1.3c0.3-0.6,0.5-1.2,0.6-1.9
			L215.7,172.2z"/>
		<path d="M217.5,156.5l9.6,4.1l-0.8,1.8l-7.9,2.3l5.8,2.5l-0.9,2.2l-9.6-4.1l0.8-1.8l7.9-2.3l-5.8-2.5L217.5,156.5z"/>
	</g>
	<g>
		<circle cx="11.6" cy="133.3" r="5.4"/>
	</g>
	<g>
		<circle cx="229.2" cy="133.3" r="5.4"/>
	</g>
</g>
</svg>
